{"glyphs":{"0":{"ha":567,"x_min":31,"x_max":538,"o":"m 357 347 l 357 819 l 211 965 l 211 294 l 258 249 l 357 347 z m 538 267 l 268 0 l 31 238 l 31 915 l 282 1165 l 538 910 l 538 267 z "},"1":{"ha":482,"x_min":6,"x_max":458,"o":"m 458 164 l 294 0 l 132 164 l 204 238 l 204 825 l 132 750 l 6 875 l 294 1164 l 385 1072 l 385 238 l 458 164 z "},"2":{"ha":563,"x_min":22,"x_max":533,"o":"m 533 0 l 260 0 l 22 238 l 22 453 l 372 801 l 372 1029 l 140 796 l 22 915 l 274 1165 l 533 901 l 533 724 l 156 343 l 300 197 l 533 197 l 533 0 z "},"3":{"ha":558,"x_min":15,"x_max":528,"o":"m 528 238 l 289 0 l 19 267 l 153 396 l 299 249 l 346 294 l 346 471 l 189 471 l 15 644 l 346 644 l 346 965 l 153 767 l 15 901 l 276 1165 l 528 915 l 528 238 z "},"4":{"ha":774,"x_min":13,"x_max":753,"o":"m 396 467 l 396 897 l 213 467 l 396 467 z m 753 467 l 576 290 l 576 238 l 650 164 l 486 0 l 324 164 l 396 238 l 396 290 l 100 290 l 13 467 l 329 1164 l 576 1164 l 663 1078 l 576 996 l 576 467 l 753 467 z "},"5":{"ha":563,"x_min":31,"x_max":538,"o":"m 538 238 l 299 0 l 31 267 l 163 396 l 308 249 l 357 294 l 357 640 l 163 443 l 31 576 l 31 1165 l 538 1165 l 338 965 l 194 965 l 194 750 l 286 842 l 538 590 l 538 238 z "},"6":{"ha":563,"x_min":32,"x_max":543,"o":"m 382 372 l 382 410 l 204 588 l 204 194 l 382 372 z m 543 258 l 281 0 l 32 244 l 32 924 l 269 1160 l 539 892 l 407 763 l 260 913 l 213 867 l 213 819 l 543 488 l 543 258 z "},"7":{"ha":686,"x_min":38,"x_max":650,"o":"m 650 1103 l 292 56 l 86 56 l 381 901 l 265 901 l 201 835 l 38 1000 l 201 1164 l 261 1103 l 650 1103 z "},"8":{"ha":568,"x_min":29,"x_max":540,"o":"m 368 267 l 368 361 l 279 451 l 208 381 l 208 282 l 296 196 l 368 267 z m 378 604 l 378 786 l 200 965 l 200 785 l 378 604 z m 540 711 l 406 578 l 535 450 l 535 199 l 335 0 l 250 0 l 29 221 l 29 449 l 161 578 l 29 711 l 29 915 l 279 1165 l 540 901 l 540 711 z "},"9":{"ha":563,"x_min":19,"x_max":532,"o":"m 361 572 l 361 965 l 181 788 l 181 750 l 361 572 z m 532 238 l 294 0 l 26 267 l 157 396 l 304 249 l 351 294 l 351 340 l 19 672 l 19 901 l 285 1160 l 532 915 l 532 238 z "}," ":{"ha":393,"x_min":null,"x_max":null,"o":""},"!":{"ha":360,"x_min":17,"x_max":343,"o":"m 343 164 l 179 0 l 17 164 l 182 329 l 343 164 z m 257 524 l 76 343 l 76 983 l 257 1164 l 257 524 z "},"\"":{"ha":429,"x_min":40,"x_max":388,"o":"m 258 833 l 246 1211 l 388 1211 l 375 833 l 258 833 z m 53 833 l 40 1211 l 182 1211 l 169 833 l 53 833 z "},"#":{"ha":681,"x_min":18,"x_max":657,"o":"m 296 644 l 296 524 l 414 524 l 414 644 l 296 644 z m 171 425 l 18 425 l 18 524 l 171 524 l 171 644 l 18 644 l 18 746 l 171 746 l 171 882 l 296 1007 l 296 746 l 414 746 l 414 882 l 540 1007 l 540 746 l 657 746 l 657 644 l 540 644 l 540 524 l 657 524 l 657 425 l 540 425 l 540 306 l 589 254 l 475 140 l 364 254 l 414 306 l 414 425 l 296 425 l 296 306 l 346 254 l 233 140 l 121 254 l 171 306 l 171 425 z "},"$":{"ha":571,"x_min":17,"x_max":551,"o":"m 236 0 l 236 110 l 17 326 l 147 457 l 296 307 l 369 379 l 369 500 l 40 500 l 40 740 l 236 936 l 236 1086 l 335 1086 l 335 969 l 551 754 l 432 635 l 201 868 l 201 610 l 524 610 l 524 296 l 335 110 l 335 0 l 236 0 z "},"%":{"ha":779,"x_min":32,"x_max":744,"o":"m 644 192 l 644 328 l 567 408 l 567 161 l 590 135 l 644 192 z m 744 147 l 597 0 l 467 131 l 467 379 l 604 517 l 744 378 l 744 147 z m 211 835 l 211 971 l 132 1051 l 132 806 l 157 781 l 211 835 z m 308 792 l 163 644 l 32 775 l 32 1025 l 169 1163 l 308 1021 l 308 792 z m 722 1165 l 190 0 l 79 0 l 611 1165 l 722 1165 z "},"&":{"ha":743,"x_min":35,"x_max":738,"o":"m 215 294 l 261 249 l 382 369 l 382 496 l 215 496 l 215 294 z m 461 989 l 325 851 l 215 965 l 215 671 l 400 671 l 563 835 l 563 671 l 738 671 l 563 496 l 563 290 l 274 0 l 35 238 l 35 915 l 285 1165 l 461 989 z "},"'":{"ha":219,"x_min":39,"x_max":179,"o":"m 51 833 l 39 1211 l 179 1211 l 168 833 l 51 833 z "},"(":{"ha":272,"x_min":39,"x_max":260,"o":"m 260 1292 l 149 1179 l 149 -33 l 257 -140 l 182 -212 l 39 -68 l 39 1207 l 193 1360 l 260 1292 z "},")":{"ha":274,"x_min":10,"x_max":232,"o":"m 10 -144 l 122 -35 l 122 1179 l 13 1286 l 88 1358 l 232 1214 l 232 -61 l 78 -214 l 10 -144 z "},"*":{"ha":494,"x_min":19,"x_max":493,"o":"m 493 622 l 19 -36 l 185 440 l 19 440 l 236 933 l 438 933 l 324 622 l 493 622 z "},"+":{"ha":656,"x_min":15,"x_max":639,"o":"m 639 571 l 435 571 l 435 367 l 222 367 l 222 571 l 15 571 l 15 758 l 222 758 l 222 972 l 435 972 l 435 758 l 639 758 l 639 571 z "},",":{"ha":392,"x_min":33,"x_max":360,"o":"m 360 164 l 83 -112 l 33 -68 l 150 47 l 33 164 l 200 329 l 360 164 z "},"-":{"ha":528,"x_min":43,"x_max":483,"o":"m 483 671 l 483 496 l 43 496 l 43 671 l 483 671 z "},".":{"ha":353,"x_min":13,"x_max":339,"o":"m 339 164 l 175 0 l 13 164 l 179 329 l 339 164 z "},"/":{"ha":524,"x_min":4,"x_max":518,"o":"m 518 1165 l 114 0 l 4 0 l 408 1165 l 518 1165 z "},":":{"ha":361,"x_min":15,"x_max":344,"o":"m 342 164 l 178 0 l 15 164 l 181 329 l 342 164 z m 344 644 l 181 483 l 18 644 l 178 810 l 344 644 z "},";":{"ha":360,"x_min":19,"x_max":350,"o":"m 346 164 l 71 -112 l 19 -68 l 136 47 l 19 164 l 186 329 l 346 164 z m 350 644 l 186 483 l 25 644 l 192 810 l 350 644 z "},"<":{"ha":321,"x_min":6,"x_max":288,"o":"m 6 406 l 6 540 l 288 701 l 288 583 l 97 472 l 288 364 l 288 243 l 6 406 z "},"=":{"ha":506,"x_min":43,"x_max":483,"o":"m 483 531 l 483 393 l 43 393 l 43 531 l 483 531 z m 483 774 l 483 636 l 43 636 l 43 774 l 483 774 z "},">":{"ha":332,"x_min":43,"x_max":325,"o":"m 325 539 l 325 404 l 43 243 l 43 361 l 235 471 l 43 581 l 43 701 l 325 539 z "},"?":{"ha":540,"x_min":15,"x_max":528,"o":"m 396 164 l 233 0 l 71 164 l 238 329 l 396 164 z m 528 724 l 338 533 l 338 346 l 174 510 l 174 611 l 367 801 l 367 1029 l 133 796 l 15 915 l 265 1165 l 528 901 l 528 724 z "},"@":{"ha":957,"x_min":35,"x_max":913,"o":"m 568 706 l 644 706 l 644 483 q 659 427 644 447 q 710 407 674 407 l 710 407 q 746 419 728 407 q 778 453 764 431 q 802 508 793 475 q 811 585 811 542 l 811 585 q 794 732 811 664 q 737 850 776 800 q 633 928 697 900 q 478 957 569 957 l 478 957 q 346 932 408 957 q 237 857 283 907 q 163 733 190 807 q 136 563 136 660 l 136 563 q 158 391 136 464 q 219 267 179 318 q 317 185 260 215 q 443 143 374 156 l 443 143 l 431 40 q 256 100 331 54 q 133 216 182 146 q 59 374 83 286 q 35 563 35 463 l 35 563 q 72 771 35 679 q 170 925 108 863 q 312 1020 232 988 q 478 1053 392 1053 l 478 1053 q 661 1025 581 1053 q 798 940 742 997 q 883 797 854 883 q 913 590 913 710 l 913 590 q 905 511 913 557 q 876 424 897 465 q 814 353 854 382 q 708 324 774 324 l 708 324 q 574 400 608 324 l 574 400 q 520 370 547 378 q 461 363 493 363 l 461 363 q 399 374 429 363 q 347 406 369 385 q 310 458 324 426 q 297 531 297 489 l 297 531 q 339 663 297 618 q 460 707 381 707 l 460 707 q 517 697 493 707 q 561 678 540 688 l 561 678 l 568 706 z m 561 485 l 561 588 q 524 615 544 607 q 476 622 503 622 l 476 622 q 379 531 379 622 l 379 531 q 469 446 379 446 l 469 446 q 561 485 531 446 l 561 485 z "},"A":{"ha":703,"x_min":18,"x_max":682,"o":"m 429 575 l 429 807 l 274 965 l 274 575 l 429 575 z m 682 164 l 518 0 l 357 164 l 429 238 l 429 386 l 274 386 l 274 238 l 344 164 l 181 0 l 18 164 l 92 238 l 92 896 l 363 1164 l 611 915 l 611 238 l 682 164 z "},"B":{"ha":621,"x_min":4,"x_max":592,"o":"m 421 324 l 421 360 l 332 451 l 261 379 l 261 164 l 421 324 z m 431 788 l 251 965 l 251 611 l 431 788 z m 592 711 l 458 578 l 588 449 l 588 199 l 388 0 l 167 0 l 4 163 l 81 239 l 81 915 l 332 1165 l 592 901 l 592 711 z "},"C":{"ha":540,"x_min":29,"x_max":540,"o":"m 540 901 l 404 764 l 208 960 l 208 294 l 254 250 l 403 396 l 535 267 l 265 0 l 29 238 l 29 915 l 279 1165 l 540 901 z "},"D":{"ha":643,"x_min":18,"x_max":615,"o":"m 435 317 l 435 840 l 278 999 l 278 158 l 435 317 z m 615 211 l 404 0 l 163 0 l 19 144 l 97 221 l 97 942 l 18 1018 l 163 1163 l 401 1163 l 615 949 l 615 211 z "},"E":{"ha":540,"x_min":29,"x_max":540,"o":"m 540 904 l 403 767 l 208 965 l 208 671 l 479 671 l 306 496 l 208 496 l 208 294 l 256 249 l 403 396 l 535 267 l 265 0 l 29 238 l 29 915 l 279 1165 l 540 904 z "},"F":{"ha":603,"x_min":18,"x_max":603,"o":"m 540 671 l 367 496 l 274 496 l 274 238 l 344 164 l 181 0 l 18 164 l 92 238 l 92 915 l 343 1165 l 603 901 l 467 767 l 274 965 l 274 671 l 540 671 z "},"G":{"ha":568,"x_min":29,"x_max":540,"o":"m 538 272 l 265 0 l 29 238 l 29 915 l 279 1165 l 540 901 l 403 767 l 208 965 l 208 294 l 256 249 l 357 349 l 357 472 l 538 654 l 538 272 z "},"H":{"ha":710,"x_min":18,"x_max":692,"o":"m 692 164 l 528 0 l 365 164 l 436 238 l 436 496 l 274 496 l 274 238 l 344 164 l 181 0 l 18 164 l 92 238 l 92 983 l 274 1164 l 274 671 l 436 671 l 436 983 l 618 1164 l 618 238 l 692 164 z "},"I":{"ha":365,"x_min":18,"x_max":344,"o":"m 344 164 l 181 0 l 18 164 l 92 238 l 92 983 l 274 1164 l 274 238 l 344 164 z "},"J":{"ha":535,"x_min":0,"x_max":506,"o":"m 506 238 l 268 0 l 0 267 l 132 396 l 279 249 l 326 294 l 326 1165 l 506 986 l 506 238 z "},"K":{"ha":703,"x_min":18,"x_max":682,"o":"m 682 164 l 518 0 l 357 164 l 429 238 l 429 429 l 274 586 l 274 238 l 344 164 l 181 0 l 18 164 l 92 238 l 92 983 l 274 1164 l 274 828 l 611 1164 l 611 924 l 408 721 l 611 518 l 611 238 l 682 164 z "},"L":{"ha":535,"x_min":29,"x_max":535,"o":"m 535 267 l 265 0 l 29 238 l 29 986 l 208 1165 l 208 294 l 256 249 l 403 396 l 535 267 z "},"M":{"ha":1040,"x_min":18,"x_max":1019,"o":"m 1019 164 l 858 0 l 694 164 l 767 238 l 767 807 l 611 965 l 611 238 l 682 164 l 518 0 l 357 164 l 429 238 l 429 807 l 274 965 l 274 238 l 344 164 l 181 0 l 18 164 l 92 238 l 92 896 l 363 1164 l 532 996 l 700 1164 l 947 915 l 947 238 l 1019 164 z "},"N":{"ha":703,"x_min":18,"x_max":682,"o":"m 682 164 l 518 0 l 357 164 l 429 238 l 429 807 l 274 965 l 274 238 l 344 164 l 181 0 l 18 164 l 92 238 l 92 896 l 363 1164 l 611 915 l 611 238 l 682 164 z "},"O":{"ha":563,"x_min":29,"x_max":535,"o":"m 354 347 l 354 819 l 208 965 l 208 294 l 256 249 l 354 347 z m 535 267 l 265 0 l 29 238 l 29 915 l 279 1165 l 535 910 l 535 267 z "},"P":{"ha":619,"x_min":18,"x_max":610,"o":"m 449 853 l 268 1031 l 268 675 l 449 853 z m 610 776 l 278 446 l 278 238 l 350 164 l 186 0 l 25 164 l 97 238 l 97 942 l 18 1018 l 163 1163 l 404 1163 l 610 960 l 610 776 z "},"Q":{"ha":563,"x_min":29,"x_max":535,"o":"m 354 347 l 354 819 l 208 965 l 208 294 l 256 249 l 354 347 z m 535 267 l 396 133 l 461 65 l 332 -67 l 29 238 l 29 915 l 279 1165 l 535 910 l 535 267 z "},"R":{"ha":708,"x_min":18,"x_max":690,"o":"m 449 857 l 268 1036 l 268 679 l 449 857 z m 690 164 l 526 0 l 364 164 l 435 238 l 435 429 l 278 589 l 278 238 l 350 164 l 186 0 l 25 164 l 97 238 l 97 946 l 18 1022 l 163 1167 l 404 1167 l 610 963 l 610 781 l 483 654 l 617 518 l 617 238 l 690 164 z "},"S":{"ha":568,"x_min":29,"x_max":540,"o":"m 540 238 l 301 0 l 33 267 l 164 399 l 311 249 l 407 343 l 29 724 l 29 901 l 289 1165 l 540 915 l 421 796 l 190 1029 l 190 801 l 540 453 l 540 238 z "},"T":{"ha":540,"x_min":-31,"x_max":644,"o":"m 644 1164 l 465 983 l 375 983 l 375 238 l 449 164 l 285 0 l 122 164 l 194 238 l 194 983 l -31 983 l 149 1164 l 644 1164 z "},"U":{"ha":719,"x_min":18,"x_max":739,"o":"m 274 928 l 274 293 l 319 246 l 429 357 l 429 928 l 357 1001 l 519 1165 l 682 1001 l 611 928 l 611 267 l 739 128 l 611 1 l 471 139 l 331 0 l 92 239 l 92 928 l 18 1001 l 182 1165 l 344 1001 l 274 928 z "},"V":{"ha":703,"x_min":18,"x_max":682,"o":"m 682 1000 l 611 926 l 611 267 l 340 0 l 92 249 l 92 926 l 18 1000 l 182 1164 l 344 1000 l 274 926 l 274 354 l 429 199 l 429 926 l 357 1000 l 519 1164 l 682 1000 z "},"W":{"ha":1040,"x_min":18,"x_max":1019,"o":"m 92 926 l 18 1000 l 181 1164 l 344 1000 l 274 926 l 274 354 l 429 199 l 429 926 l 357 1000 l 519 1164 l 682 1000 l 611 926 l 611 354 l 767 199 l 767 926 l 694 1000 l 858 1164 l 1019 1000 l 947 926 l 947 267 l 678 0 l 507 168 l 340 0 l 92 249 l 92 926 z "},"X":{"ha":707,"x_min":18,"x_max":688,"o":"m 688 1000 l 615 926 l 444 582 l 611 238 l 682 164 l 518 0 l 357 164 l 429 238 l 351 399 l 274 238 l 344 164 l 181 0 l 18 164 l 92 238 l 263 582 l 97 926 l 25 1000 l 189 1164 l 350 1000 l 278 926 l 354 765 l 435 926 l 363 1000 l 526 1164 l 688 1000 z "},"Y":{"ha":703,"x_min":17,"x_max":681,"o":"m 508 164 l 344 0 l 182 164 l 256 238 l 256 478 l 90 643 l 90 928 l 17 1001 l 181 1165 l 343 1001 l 272 928 l 272 750 l 428 593 l 428 928 l 354 1001 l 518 1165 l 681 1001 l 610 928 l 610 663 l 435 492 l 435 238 l 508 164 z "},"Z":{"ha":703,"x_min":22,"x_max":679,"o":"m 679 164 l 517 -1 l 460 56 l 71 56 l 367 901 l 250 901 l 185 835 l 22 1000 l 185 1164 l 246 1103 l 633 1103 l 321 275 l 464 275 l 517 328 l 679 164 z "},"[":{"ha":272,"x_min":39,"x_max":260,"o":"m 260 1292 l 149 1179 l 149 -33 l 257 -140 l 182 -212 l 39 -68 l 39 1207 l 193 1360 l 260 1292 z "},"\\":{"ha":525,"x_min":4,"x_max":518,"o":"m 410 0 l 4 1165 l 115 1165 l 518 0 l 410 0 z "},"]":{"ha":274,"x_min":10,"x_max":232,"o":"m 10 -144 l 122 -35 l 122 1179 l 13 1286 l 88 1358 l 232 1214 l 232 -61 l 78 -214 l 10 -144 z "},"^":{"ha":503,"x_min":22,"x_max":479,"o":"m 183 1021 l 319 1021 l 479 740 l 363 740 l 251 931 l 142 740 l 22 740 l 183 1021 z "},"_":{"ha":965,"x_min":17,"x_max":949,"o":"m 949 354 l 543 -40 l 543 93 l 17 -18 l 401 354 l 401 242 l 949 354 z "},"`":{"ha":358,"x_min":53,"x_max":296,"o":"m 53 1314 l 193 1314 l 296 1186 l 217 1186 l 53 1314 z "},"a":{"ha":631,"x_min":29,"x_max":675,"o":"m 354 347 l 354 596 l 208 743 l 208 293 l 254 247 l 354 347 z m 407 139 l 265 0 l 29 238 l 29 692 l 279 943 l 535 686 l 535 267 l 675 128 l 546 1 l 407 139 z "},"b":{"ha":563,"x_min":29,"x_max":535,"o":"m 354 347 l 354 596 l 208 743 l 208 293 l 254 247 l 354 347 z m 535 267 l 265 0 l 29 238 l 29 983 l 208 1164 l 208 872 l 279 943 l 535 686 l 535 267 z "},"c":{"ha":546,"x_min":29,"x_max":540,"o":"m 540 679 l 403 544 l 208 743 l 208 294 l 256 249 l 403 396 l 535 267 l 265 0 l 29 238 l 29 693 l 279 943 l 540 679 z "},"d":{"ha":585,"x_min":-57,"x_max":556,"o":"m 376 347 l 376 596 l 231 743 l 231 293 l 276 247 l 376 347 z m 556 267 l 288 0 l 50 238 l 50 692 l 165 807 l -57 1029 l 79 1164 l 556 686 l 556 267 z "},"e":{"ha":554,"x_min":29,"x_max":540,"o":"m 208 743 l 208 449 l 354 593 l 208 743 z m 540 679 l 208 347 l 208 294 l 256 249 l 403 396 l 535 267 l 265 0 l 29 238 l 29 693 l 279 943 l 540 679 z "},"f":{"ha":463,"x_min":29,"x_max":463,"o":"m 463 832 l 290 657 l 208 657 l 208 -40 l 29 -221 l 29 915 l 279 1165 l 435 1006 l 300 872 l 208 965 l 208 832 l 463 832 z "},"g":{"ha":568,"x_min":29,"x_max":540,"o":"m 368 349 l 368 743 l 190 565 l 190 529 l 368 349 z m 540 14 l 301 -222 l 33 44 l 165 174 l 311 26 l 360 72 l 360 118 l 29 450 l 29 679 l 289 943 l 540 693 l 540 14 z "},"h":{"ha":703,"x_min":18,"x_max":682,"o":"m 682 164 l 518 0 l 357 164 l 429 238 l 429 704 l 274 544 l 274 238 l 344 164 l 181 0 l 18 164 l 92 238 l 92 983 l 274 1164 l 274 774 l 442 943 l 611 774 l 611 238 l 682 164 z "},"i":{"ha":365,"x_min":18,"x_max":344,"o":"m 338 974 l 200 836 l 60 974 l 200 1114 l 338 974 z m 344 164 l 181 0 l 18 164 l 92 238 l 92 547 l 22 617 l 201 797 l 274 726 l 274 238 l 344 164 z "},"j":{"ha":426,"x_min":11,"x_max":410,"o":"m 410 974 l 272 836 l 132 974 l 272 1114 l 410 974 z m 343 13 l 107 -224 l 11 -128 l 164 28 l 164 547 l 93 617 l 274 797 l 343 726 l 343 13 z "},"k":{"ha":682,"x_min":18,"x_max":682,"o":"m 274 706 l 274 525 l 401 653 l 310 744 l 274 706 z m 682 164 l 518 0 l 357 164 l 429 238 l 274 392 l 274 238 l 344 164 l 181 0 l 18 164 l 92 238 l 92 983 l 274 1164 l 274 828 l 392 949 l 610 732 l 361 486 l 682 164 z "},"l":{"ha":365,"x_min":18,"x_max":344,"o":"m 344 164 l 181 0 l 18 164 l 92 238 l 92 983 l 274 1164 l 274 238 l 344 164 z "},"m":{"ha":1040,"x_min":18,"x_max":1019,"o":"m 1019 164 l 858 0 l 694 164 l 767 238 l 767 588 l 611 744 l 611 238 l 682 164 l 518 0 l 357 164 l 429 238 l 429 588 l 274 744 l 274 238 l 344 164 l 181 0 l 18 164 l 92 238 l 92 675 l 363 943 l 532 775 l 700 943 l 947 694 l 947 238 l 1019 164 z "},"n":{"ha":703,"x_min":18,"x_max":682,"o":"m 682 164 l 518 0 l 357 164 l 429 238 l 429 588 l 274 744 l 274 238 l 344 164 l 181 0 l 18 164 l 92 238 l 92 675 l 363 943 l 611 694 l 611 238 l 682 164 z "},"o":{"ha":563,"x_min":29,"x_max":535,"o":"m 354 347 l 354 596 l 208 743 l 208 293 l 254 247 l 354 347 z m 535 267 l 265 0 l 29 238 l 29 692 l 279 943 l 535 686 l 535 267 z "},"p":{"ha":563,"x_min":29,"x_max":535,"o":"m 354 347 l 354 596 l 208 743 l 208 293 l 254 247 l 354 347 z m 535 267 l 265 0 l 207 56 l 207 -221 l 29 -40 l 29 692 l 279 943 l 535 686 l 535 267 z "},"q":{"ha":557,"x_min":17,"x_max":524,"o":"m 343 346 l 343 596 l 197 743 l 197 293 l 243 247 l 343 346 z m 524 -42 l 343 -222 l 343 88 l 254 0 l 17 238 l 17 692 l 267 943 l 524 686 l 524 -42 z "},"r":{"ha":533,"x_min":18,"x_max":533,"o":"m 533 771 l 389 626 l 274 744 l 274 238 l 344 164 l 181 0 l 18 164 l 92 238 l 92 672 l 363 943 l 533 771 z "},"s":{"ha":576,"x_min":18,"x_max":553,"o":"m 526 238 l 288 0 l 18 267 l 150 399 l 299 249 l 372 321 l 372 442 l 42 442 l 42 681 l 303 946 l 553 696 l 435 576 l 204 808 l 204 550 l 526 550 l 526 238 z "},"t":{"ha":413,"x_min":18,"x_max":492,"o":"m 92 238 l 92 983 l 274 1164 l 274 832 l 492 832 l 315 657 l 274 657 l 274 238 l 344 164 l 181 0 l 18 164 l 92 238 z "},"u":{"ha":714,"x_min":18,"x_max":739,"o":"m 274 706 l 274 293 l 319 246 l 429 357 l 429 706 l 357 779 l 519 943 l 682 779 l 611 706 l 611 267 l 739 128 l 611 1 l 471 139 l 331 0 l 92 239 l 92 706 l 18 779 l 182 943 l 344 779 l 274 706 z "},"v":{"ha":703,"x_min":18,"x_max":682,"o":"m 682 779 l 611 706 l 611 267 l 340 0 l 92 249 l 92 706 l 18 779 l 182 943 l 344 779 l 274 706 l 274 354 l 429 199 l 429 706 l 357 779 l 519 943 l 682 779 z "},"w":{"ha":1040,"x_min":18,"x_max":1019,"o":"m 92 706 l 18 779 l 181 943 l 344 779 l 274 706 l 274 354 l 429 199 l 429 706 l 357 779 l 519 943 l 682 779 l 611 706 l 611 354 l 767 199 l 767 706 l 694 779 l 858 943 l 1019 779 l 947 706 l 947 267 l 678 0 l 507 168 l 340 0 l 92 249 l 92 706 z "},"x":{"ha":707,"x_min":18,"x_max":688,"o":"m 688 779 l 457 472 l 682 164 l 518 0 l 357 164 l 429 238 l 351 360 l 274 238 l 344 164 l 181 0 l 18 164 l 250 472 l 25 779 l 189 943 l 350 779 l 278 706 l 354 583 l 435 706 l 363 779 l 526 943 l 688 779 z "},"y":{"ha":703,"x_min":18,"x_max":682,"o":"m 682 779 l 611 706 l 611 28 l 365 -221 l 246 -101 l 429 82 l 429 208 l 261 40 l 92 208 l 92 706 l 18 779 l 182 943 l 344 779 l 274 706 l 274 279 l 429 436 l 429 706 l 357 779 l 519 943 l 682 779 z "},"z":{"ha":700,"x_min":19,"x_max":679,"o":"m 679 164 l 515 -1 l 458 56 l 69 56 l 346 682 l 250 682 l 183 618 l 19 783 l 183 947 l 244 886 l 633 886 l 350 275 l 463 275 l 515 328 l 679 164 z "},"{":{"ha":383,"x_min":6,"x_max":363,"o":"m 363 1292 l 250 1179 l 250 711 l 158 621 l 250 529 l 250 -33 l 360 -140 l 285 -212 l 140 -68 l 140 490 l 6 625 l 140 761 l 140 1207 l 294 1360 l 363 1292 z "},"|":{"ha":167,"x_min":43,"x_max":118,"o":"m 43 -199 l 43 1219 l 118 1219 l 118 -199 l 43 -199 z "},"}":{"ha":382,"x_min":19,"x_max":378,"o":"m 19 -144 l 132 -35 l 132 538 l 224 628 l 132 718 l 132 1179 l 24 1286 l 97 1358 l 242 1214 l 242 758 l 378 622 l 242 488 l 242 -61 l 88 -214 l 19 -144 z "},"¡":{"ha":360,"x_min":15,"x_max":342,"o":"m 15 776 l 179 939 l 342 776 l 175 611 l 15 776 z m 100 417 l 282 596 l 282 -43 l 100 -224 l 100 417 z "},"¢":{"ha":546,"x_min":29,"x_max":540,"o":"m 222 49 l 222 190 l 29 382 l 29 839 l 222 1032 l 222 1168 l 322 1168 l 322 1043 l 540 825 l 403 692 l 208 889 l 208 440 l 256 393 l 403 542 l 535 413 l 315 194 l 315 49 l 222 49 z "},"£":{"ha":692,"x_min":18,"x_max":638,"o":"m 183 0 l 183 3 l 181 0 l 18 164 l 92 238 l 92 915 l 343 1165 l 603 901 l 467 767 l 274 965 l 274 671 l 540 671 l 367 496 l 274 496 l 274 238 l 308 200 l 638 200 l 436 0 l 183 0 z "},"¥":{"ha":703,"x_min":17,"x_max":681,"o":"m 581 333 l 581 249 l 435 249 l 435 238 l 508 164 l 344 0 l 182 164 l 256 238 l 256 249 l 122 249 l 122 333 l 256 333 l 256 401 l 122 401 l 122 486 l 247 486 l 90 643 l 90 928 l 17 1001 l 181 1165 l 343 1001 l 272 928 l 272 750 l 428 593 l 428 928 l 354 1001 l 518 1165 l 681 1001 l 610 928 l 610 663 l 435 492 l 435 486 l 581 486 l 581 401 l 435 401 l 435 333 l 581 333 z "},"¦":{"ha":167,"x_min":43,"x_max":118,"o":"m 118 1219 l 118 738 l 43 738 l 43 1219 l 118 1219 z m 43 -199 l 43 304 l 118 304 l 118 -199 l 43 -199 z "},"§":{"ha":576,"x_min":18,"x_max":553,"o":"m 204 586 l 371 415 l 371 581 l 204 750 l 204 586 z m 526 238 l 288 0 l 18 267 l 150 399 l 371 175 l 371 308 l 42 639 l 42 901 l 303 1165 l 553 915 l 435 796 l 204 1029 l 204 867 l 526 543 l 526 238 z "},"¨":{"ha":443,"x_min":39,"x_max":413,"o":"m 413 1247 l 333 1168 l 256 1247 l 335 1326 l 413 1247 z m 194 1247 l 117 1168 l 39 1247 l 118 1326 l 194 1247 z "},"©":{"ha":1317,"x_min":51,"x_max":1261,"o":"m 51 590 l 51 590 q 100 823 53 713 q 228 1015 147 933 q 419 1146 310 1097 q 656 1194 529 1194 l 656 1194 q 891 1147 781 1194 q 1084 1017 1001 1099 q 1214 825 1167 935 q 1261 590 1261 715 l 1261 590 q 1214 353 1261 464 q 1085 161 1167 243 q 893 32 1003 79 q 658 -15 783 -15 l 658 -15 q 422 32 532 -15 q 230 161 311 79 q 101 353 149 243 q 51 590 53 464 z m 125 588 l 125 588 q 168 378 126 476 q 281 208 210 281 q 448 94 351 136 q 658 53 544 53 l 658 53 q 866 94 768 53 q 1038 206 964 135 q 1155 376 1111 278 q 1199 588 1199 474 l 1199 588 q 1156 797 1199 699 q 1039 967 1113 894 q 867 1083 965 1040 q 661 1125 769 1125 l 661 1125 q 450 1083 547 1125 q 281 967 353 1040 q 168 797 210 894 q 125 588 126 699 z m 872 747 l 764 642 l 614 797 l 614 447 l 650 411 l 764 526 l 867 425 l 658 217 l 474 403 l 474 757 l 668 953 l 872 747 z "},"«":{"ha":646,"x_min":42,"x_max":608,"o":"m 42 243 l 42 243 z m 326 406 l 326 540 l 608 701 l 608 583 l 418 472 l 608 364 l 608 243 l 326 406 z m 42 406 l 42 540 l 324 701 l 324 583 l 133 472 l 324 364 l 324 243 l 42 406 z "},"®":{"ha":692,"x_min":60,"x_max":638,"o":"m 344 1086 l 344 1086 q 248 1067 290 1086 q 176 1018 206 1049 q 130 948 146 988 q 114 868 114 908 l 114 868 q 130 788 114 828 q 176 717 146 749 q 248 667 206 686 q 344 649 290 649 l 344 649 q 440 665 394 649 q 519 711 485 682 q 572 781 553 740 q 592 868 592 821 l 592 868 q 574 948 592 908 q 523 1018 556 988 q 444 1067 490 1049 q 344 1086 399 1086 z m 346 597 l 346 597 q 231 619 283 597 q 141 679 179 642 q 81 766 103 717 q 60 868 60 815 l 60 868 q 81 972 60 922 q 141 1058 103 1021 q 231 1117 179 1096 q 346 1139 283 1139 l 346 1139 q 463 1118 410 1139 q 556 1060 517 1097 q 616 974 594 1024 q 638 868 638 925 l 638 868 q 615 766 638 815 q 554 679 593 717 q 462 619 515 642 q 346 597 408 597 z m 364 951 l 315 951 l 315 885 l 364 885 q 393 917 393 885 l 393 917 q 364 951 393 951 l 364 951 z m 394 717 l 344 825 l 315 825 l 315 717 l 257 717 l 257 1010 l 363 1010 q 428 985 403 1010 q 453 917 453 961 l 453 917 q 441 869 453 888 q 404 833 429 850 l 404 833 l 457 717 l 394 717 z "},"´":{"ha":358,"x_min":72,"x_max":315,"o":"m 176 1314 l 315 1314 l 151 1186 l 72 1186 l 176 1314 z "},"¸":{"ha":304,"x_min":53,"x_max":263,"o":"m 99 51 l 150 51 l 149 17 l 263 -97 l 263 -207 l 186 -285 l 135 -285 l 53 -203 l 168 -203 l 168 -133 l 99 -65 l 99 51 z "},"»":{"ha":685,"x_min":43,"x_max":643,"o":"m 43 243 l 43 243 z m 643 539 l 643 404 l 361 243 l 361 361 l 553 471 l 361 581 l 361 701 l 643 539 z m 325 539 l 325 404 l 43 243 l 43 361 l 235 471 l 43 581 l 43 701 l 325 539 z "},"¿":{"ha":540,"x_min":15,"x_max":528,"o":"m 144 779 l 308 943 l 471 779 l 306 614 l 144 779 z m 15 218 l 204 410 l 204 596 l 368 432 l 368 332 l 176 140 l 176 -87 l 408 144 l 528 28 l 276 -222 l 15 40 l 15 218 z "},"À":{"ha":703,"x_min":18,"x_max":682,"o":"m 18 0 l 18 0 z m 429 575 l 429 807 l 274 965 l 274 575 l 429 575 z m 682 164 l 518 0 l 357 164 l 429 238 l 429 386 l 274 386 l 274 238 l 344 164 l 181 0 l 18 164 l 92 238 l 92 896 l 363 1164 l 611 915 l 611 238 l 682 164 z m 150 1314 l 290 1314 l 393 1186 l 314 1186 l 150 1314 z "},"Á":{"ha":703,"x_min":18,"x_max":682,"o":"m 18 0 l 18 0 z m 429 575 l 429 807 l 274 965 l 274 575 l 429 575 z m 682 164 l 518 0 l 357 164 l 429 238 l 429 386 l 274 386 l 274 238 l 344 164 l 181 0 l 18 164 l 92 238 l 92 896 l 363 1164 l 611 915 l 611 238 l 682 164 z m 401 1314 l 540 1314 l 376 1186 l 297 1186 l 401 1314 z "},"Â":{"ha":703,"x_min":18,"x_max":682,"o":"m 18 0 l 18 0 z m 429 575 l 429 807 l 274 965 l 274 575 l 429 575 z m 682 164 l 518 0 l 357 164 l 429 238 l 429 386 l 274 386 l 274 238 l 344 164 l 181 0 l 18 164 l 92 238 l 92 896 l 363 1164 l 611 915 l 611 238 l 682 164 z m 153 1165 l 281 1293 l 428 1293 l 554 1165 l 415 1165 l 356 1271 l 296 1165 l 153 1165 z "},"Ã":{"ha":703,"x_min":18,"x_max":682,"o":"m 18 0 l 18 0 z m 429 575 l 429 807 l 274 965 l 274 575 l 429 575 z m 682 164 l 518 0 l 357 164 l 429 238 l 429 386 l 274 386 l 274 238 l 344 164 l 181 0 l 18 164 l 92 238 l 92 896 l 363 1164 l 611 915 l 611 238 l 682 164 z m 211 1186 l 138 1250 l 242 1314 l 382 1250 l 467 1314 l 544 1249 l 439 1186 l 299 1253 l 211 1186 z "},"Ä":{"ha":703,"x_min":18,"x_max":682,"o":"m 18 0 l 18 0 z m 429 575 l 429 807 l 274 965 l 274 575 l 429 575 z m 682 164 l 518 0 l 357 164 l 429 238 l 429 386 l 274 386 l 274 238 l 344 164 l 181 0 l 18 164 l 92 238 l 92 896 l 363 1164 l 611 915 l 611 238 l 682 164 z m 547 1247 l 468 1168 l 390 1247 l 469 1326 l 547 1247 z m 329 1247 l 251 1168 l 174 1247 l 253 1326 l 329 1247 z "},"Å":{"ha":703,"x_min":18,"x_max":682,"o":"m 18 0 l 18 0 z m 429 575 l 429 807 l 274 965 l 274 575 l 429 575 z m 682 164 l 518 0 l 357 164 l 429 238 l 429 386 l 274 386 l 274 238 l 344 164 l 181 0 l 18 164 l 92 238 l 92 896 l 363 1164 l 611 915 l 611 238 l 682 164 z m 294 1278 l 294 1278 q 313 1229 294 1249 q 363 1210 332 1210 l 363 1210 q 410 1229 390 1210 q 431 1278 431 1249 l 431 1278 q 410 1326 431 1307 q 363 1346 390 1346 l 363 1346 q 313 1326 332 1346 q 294 1278 294 1307 z m 257 1278 l 257 1278 q 288 1351 257 1321 q 361 1382 318 1382 l 361 1382 q 435 1351 404 1382 q 465 1278 465 1321 l 465 1278 q 435 1204 465 1235 q 361 1174 404 1174 l 361 1174 q 288 1204 318 1174 q 257 1278 257 1235 z "},"Æ":{"ha":949,"x_min":18,"x_max":944,"o":"m 944 904 l 807 767 l 613 965 l 613 671 l 883 671 l 710 496 l 613 496 l 613 294 l 660 249 l 807 396 l 939 267 l 669 0 l 429 238 l 429 386 l 274 386 l 274 238 l 344 164 l 181 0 l 18 164 l 92 238 l 92 896 l 363 1164 l 522 1004 l 683 1165 l 944 904 z m 429 575 l 429 807 l 274 965 l 274 575 l 429 575 z "},"Ç":{"ha":540,"x_min":29,"x_max":540,"o":"m 540 901 l 404 764 l 208 960 l 208 294 l 254 250 l 403 396 l 535 267 l 279 14 l 390 -97 l 390 -207 l 314 -285 l 263 -285 l 181 -203 l 296 -203 l 296 -133 l 226 -65 l 226 39 l 29 238 l 29 915 l 279 1165 l 540 901 z "},"È":{"ha":540,"x_min":29,"x_max":540,"o":"m 29 0 l 29 0 z m 540 904 l 403 767 l 208 965 l 208 671 l 479 671 l 306 496 l 208 496 l 208 294 l 256 249 l 403 396 l 535 267 l 265 0 l 29 238 l 29 915 l 279 1165 l 540 904 z m 68 1314 l 208 1314 l 311 1186 l 232 1186 l 68 1314 z "},"É":{"ha":540,"x_min":29,"x_max":540,"o":"m 29 0 l 29 0 z m 540 904 l 403 767 l 208 965 l 208 671 l 479 671 l 306 496 l 208 496 l 208 294 l 256 249 l 403 396 l 535 267 l 265 0 l 29 238 l 29 915 l 279 1165 l 540 904 z m 321 1314 l 460 1314 l 296 1186 l 217 1186 l 321 1314 z "},"Ê":{"ha":540,"x_min":29,"x_max":540,"o":"m 29 0 l 29 0 z m 540 904 l 403 767 l 208 965 l 208 671 l 479 671 l 306 496 l 208 496 l 208 294 l 256 249 l 403 396 l 535 267 l 265 0 l 29 238 l 29 915 l 279 1165 l 540 904 z m 78 1186 l 206 1314 l 353 1314 l 479 1186 l 340 1186 l 281 1292 l 221 1186 l 78 1186 z "},"Ë":{"ha":540,"x_min":29,"x_max":540,"o":"m 29 0 l 29 0 z m 540 904 l 403 767 l 208 965 l 208 671 l 479 671 l 306 496 l 208 496 l 208 294 l 256 249 l 403 396 l 535 267 l 265 0 l 29 238 l 29 915 l 279 1165 l 540 904 z m 464 1247 l 385 1168 l 307 1247 l 386 1326 l 464 1247 z m 246 1247 l 168 1168 l 90 1247 l 169 1326 l 246 1247 z "},"Ì":{"ha":365,"x_min":18,"x_max":344,"o":"m 18 0 l 18 0 z m 344 164 l 181 0 l 18 164 l 92 238 l 92 983 l 274 1164 l 274 238 l 344 164 z m 53 1314 l 193 1314 l 296 1186 l 217 1186 l 53 1314 z "},"Í":{"ha":365,"x_min":18,"x_max":368,"o":"m 18 0 l 18 0 z m 344 164 l 181 0 l 18 164 l 92 238 l 92 983 l 274 1164 l 274 238 l 344 164 z m 229 1314 l 368 1314 l 204 1186 l 125 1186 l 229 1314 z "},"Î":{"ha":365,"x_min":3,"x_max":404,"o":"m 3 0 l 3 0 z m 344 164 l 181 0 l 18 164 l 92 238 l 92 983 l 274 1164 l 274 238 l 344 164 z m 3 1186 l 131 1314 l 278 1314 l 404 1186 l 265 1186 l 206 1292 l 146 1186 l 3 1186 z "},"Ï":{"ha":365,"x_min":6,"x_max":379,"o":"m 6 0 l 6 0 z m 344 164 l 181 0 l 18 164 l 92 238 l 92 983 l 274 1164 l 274 238 l 344 164 z m 379 1247 l 300 1168 l 222 1247 l 301 1326 l 379 1247 z m 161 1247 l 83 1168 l 6 1247 l 85 1326 l 161 1247 z "},"Ð":{"ha":643,"x_min":18,"x_max":615,"o":"m 615 211 l 404 0 l 163 0 l 19 144 l 97 221 l 97 518 l 25 518 l 25 657 l 97 657 l 97 942 l 18 1018 l 163 1163 l 401 1163 l 615 949 l 615 211 z m 375 657 l 375 518 l 278 518 l 278 158 l 435 317 l 435 840 l 278 999 l 278 657 l 375 657 z "},"Ñ":{"ha":703,"x_min":18,"x_max":682,"o":"m 18 0 l 18 0 z m 682 164 l 518 0 l 357 164 l 429 238 l 429 807 l 274 965 l 274 238 l 344 164 l 181 0 l 18 164 l 92 238 l 92 896 l 363 1164 l 611 915 l 611 238 l 682 164 z m 214 1186 l 140 1250 l 244 1314 l 385 1250 l 469 1314 l 547 1249 l 442 1186 l 301 1253 l 214 1186 z "},"Ò":{"ha":563,"x_min":29,"x_max":535,"o":"m 29 0 l 29 0 z m 354 347 l 354 819 l 208 965 l 208 294 l 256 249 l 354 347 z m 535 267 l 265 0 l 29 238 l 29 915 l 279 1165 l 535 910 l 535 267 z m 96 1314 l 236 1314 l 339 1186 l 260 1186 l 96 1314 z "},"Ó":{"ha":563,"x_min":29,"x_max":535,"o":"m 29 0 l 29 0 z m 354 347 l 354 819 l 208 965 l 208 294 l 256 249 l 354 347 z m 535 267 l 265 0 l 29 238 l 29 915 l 279 1165 l 535 910 l 535 267 z m 299 1314 l 438 1314 l 274 1186 l 194 1186 l 299 1314 z "},"Ô":{"ha":563,"x_min":29,"x_max":535,"o":"m 29 0 l 29 0 z m 354 347 l 354 819 l 208 965 l 208 294 l 256 249 l 354 347 z m 535 267 l 265 0 l 29 238 l 29 915 l 279 1165 l 535 910 l 535 267 z m 78 1186 l 206 1314 l 353 1314 l 479 1186 l 340 1186 l 281 1292 l 221 1186 l 78 1186 z "},"Õ":{"ha":563,"x_min":29,"x_max":535,"o":"m 29 0 l 29 0 z m 354 347 l 354 819 l 208 965 l 208 294 l 256 249 l 354 347 z m 535 267 l 265 0 l 29 238 l 29 915 l 279 1165 l 535 910 l 535 267 z m 139 1186 l 65 1250 l 169 1314 l 310 1250 l 394 1314 l 472 1249 l 367 1186 l 226 1253 l 139 1186 z "},"Ö":{"ha":563,"x_min":29,"x_max":535,"o":"m 29 0 l 29 0 z m 354 347 l 354 819 l 208 965 l 208 294 l 256 249 l 354 347 z m 535 267 l 265 0 l 29 238 l 29 915 l 279 1165 l 535 910 l 535 267 z m 461 1247 l 382 1168 l 304 1247 l 383 1326 l 461 1247 z m 243 1247 l 165 1168 l 88 1247 l 167 1326 l 243 1247 z "},"Ø":{"ha":563,"x_min":4,"x_max":535,"o":"m 518 1165 l 456 988 l 535 910 l 535 267 l 265 0 l 153 113 l 114 0 l 4 0 l 71 194 l 29 238 l 29 915 l 279 1165 l 375 1069 l 408 1165 l 518 1165 z m 354 347 l 354 693 l 214 289 l 256 249 l 354 347 z m 208 965 l 208 589 l 306 868 l 208 965 z "},"Ù":{"ha":719,"x_min":18,"x_max":739,"o":"m 18 0 l 18 0 z m 274 928 l 274 293 l 319 246 l 429 357 l 429 928 l 357 1001 l 519 1165 l 682 1001 l 611 928 l 611 267 l 739 128 l 611 1 l 471 139 l 331 0 l 92 239 l 92 928 l 18 1001 l 182 1165 l 344 1001 l 274 928 z m 150 1314 l 290 1314 l 393 1186 l 314 1186 l 150 1314 z "},"Ú":{"ha":719,"x_min":18,"x_max":739,"o":"m 18 0 l 18 0 z m 274 928 l 274 293 l 319 246 l 429 357 l 429 928 l 357 1001 l 519 1165 l 682 1001 l 611 928 l 611 267 l 739 128 l 611 1 l 471 139 l 331 0 l 92 239 l 92 928 l 18 1001 l 182 1165 l 344 1001 l 274 928 z m 403 1314 l 542 1314 l 378 1186 l 299 1186 l 403 1314 z "},"Û":{"ha":719,"x_min":18,"x_max":739,"o":"m 18 0 l 18 0 z m 274 928 l 274 293 l 319 246 l 429 357 l 429 928 l 357 1001 l 519 1165 l 682 1001 l 611 928 l 611 267 l 739 128 l 611 1 l 471 139 l 331 0 l 92 239 l 92 928 l 18 1001 l 182 1165 l 344 1001 l 274 928 z m 143 1186 l 271 1314 l 418 1314 l 544 1186 l 406 1186 l 346 1292 l 286 1186 l 143 1186 z "},"Ü":{"ha":719,"x_min":18,"x_max":739,"o":"m 18 0 l 18 0 z m 274 928 l 274 293 l 319 246 l 429 357 l 429 928 l 357 1001 l 519 1165 l 682 1001 l 611 928 l 611 267 l 739 128 l 611 1 l 471 139 l 331 0 l 92 239 l 92 928 l 18 1001 l 182 1165 l 344 1001 l 274 928 z m 531 1247 l 451 1168 l 374 1247 l 453 1326 l 531 1247 z m 313 1247 l 235 1168 l 157 1247 l 236 1326 l 313 1247 z "},"Ý":{"ha":703,"x_min":17,"x_max":681,"o":"m 17 0 l 17 0 z m 508 164 l 344 0 l 182 164 l 256 238 l 256 478 l 90 643 l 90 928 l 17 1001 l 181 1165 l 343 1001 l 272 928 l 272 750 l 428 593 l 428 928 l 354 1001 l 518 1165 l 681 1001 l 610 928 l 610 663 l 435 492 l 435 238 l 508 164 z m 367 1314 l 506 1314 l 342 1186 l 263 1186 l 367 1314 z "},"Þ":{"ha":636,"x_min":18,"x_max":610,"o":"m 449 644 l 274 819 l 274 471 l 449 644 z m 610 569 l 278 239 l 350 164 l 186 0 l 183 3 l 181 0 l 18 164 l 92 238 l 92 983 l 274 1164 l 274 956 l 404 956 l 610 751 l 610 569 z "},"ß":{"ha":632,"x_min":24,"x_max":599,"o":"m 349 164 l 185 0 l 24 164 l 96 238 l 96 922 l 339 1165 l 599 901 l 599 775 l 465 642 l 594 514 l 594 124 l 465 -6 l 346 114 l 428 196 l 428 424 l 321 547 l 438 668 l 438 786 l 276 950 l 276 238 l 349 164 z "},"à":{"ha":631,"x_min":29,"x_max":675,"o":"m 29 0 l 29 0 z m 354 347 l 354 596 l 208 743 l 208 293 l 254 247 l 354 347 z m 407 139 l 265 0 l 29 238 l 29 692 l 279 943 l 535 686 l 535 267 l 675 128 l 546 1 l 407 139 z m 72 1096 l 213 1096 l 315 968 l 236 968 l 72 1096 z "},"á":{"ha":631,"x_min":29,"x_max":675,"o":"m 29 0 l 29 0 z m 354 347 l 354 596 l 208 743 l 208 293 l 254 247 l 354 347 z m 407 139 l 265 0 l 29 238 l 29 692 l 279 943 l 535 686 l 535 267 l 675 128 l 546 1 l 407 139 z m 326 1096 l 465 1096 l 301 968 l 222 968 l 326 1096 z "},"â":{"ha":631,"x_min":29,"x_max":675,"o":"m 29 0 l 29 0 z m 354 347 l 354 596 l 208 743 l 208 293 l 254 247 l 354 347 z m 407 139 l 265 0 l 29 238 l 29 692 l 279 943 l 535 686 l 535 267 l 675 128 l 546 1 l 407 139 z m 75 968 l 203 1096 l 350 1096 l 476 968 l 338 968 l 278 1074 l 218 968 l 75 968 z "},"ã":{"ha":631,"x_min":29,"x_max":675,"o":"m 29 0 l 29 0 z m 354 347 l 354 596 l 208 743 l 208 293 l 254 247 l 354 347 z m 407 139 l 265 0 l 29 238 l 29 692 l 279 943 l 535 686 l 535 267 l 675 128 l 546 1 l 407 139 z m 149 968 l 75 1032 l 179 1096 l 319 1032 l 404 1096 l 482 1031 l 376 968 l 236 1035 l 149 968 z "},"ä":{"ha":631,"x_min":29,"x_max":675,"o":"m 29 0 l 29 0 z m 354 347 l 354 596 l 208 743 l 208 293 l 254 247 l 354 347 z m 407 139 l 265 0 l 29 238 l 29 692 l 279 943 l 535 686 l 535 267 l 675 128 l 546 1 l 407 139 z m 465 1029 l 386 950 l 308 1029 l 388 1108 l 465 1029 z m 247 1029 l 169 950 l 92 1029 l 171 1108 l 247 1029 z "},"å":{"ha":631,"x_min":29,"x_max":675,"o":"m 29 0 l 29 0 z m 354 347 l 354 596 l 208 743 l 208 293 l 254 247 l 354 347 z m 407 139 l 265 0 l 29 238 l 29 692 l 279 943 l 535 686 l 535 267 l 675 128 l 546 1 l 407 139 z m 218 1060 l 218 1060 q 237 1011 218 1031 q 286 992 256 992 l 286 992 q 334 1011 314 992 q 354 1060 354 1031 l 354 1060 q 334 1108 354 1089 q 286 1128 314 1128 l 286 1128 q 237 1108 256 1128 q 218 1060 218 1089 z m 181 1060 l 181 1060 q 211 1133 181 1103 q 285 1164 242 1164 l 285 1164 q 358 1133 328 1164 q 389 1060 389 1103 l 389 1060 q 358 986 389 1017 q 285 956 328 956 l 285 956 q 211 986 242 956 q 181 1060 181 1017 z "},"æ":{"ha":897,"x_min":29,"x_max":875,"o":"m 543 743 l 543 449 l 692 593 l 543 743 z m 354 347 l 354 596 l 208 743 l 208 293 l 254 247 l 354 347 z m 875 679 l 543 347 l 543 294 l 590 249 l 739 396 l 869 267 l 600 0 l 531 71 l 531 0 l 407 0 l 407 139 l 265 0 l 29 238 l 29 692 l 279 943 l 446 775 l 614 943 l 875 679 z "},"ç":{"ha":546,"x_min":29,"x_max":540,"o":"m 540 679 l 403 544 l 208 743 l 208 294 l 256 249 l 403 396 l 535 267 l 297 32 l 297 17 l 411 -97 l 411 -207 l 335 -285 l 283 -285 l 201 -203 l 317 -203 l 317 -133 l 247 -65 l 247 18 l 29 238 l 29 693 l 279 943 l 540 679 z "},"è":{"ha":554,"x_min":29,"x_max":540,"o":"m 29 0 l 29 0 z m 208 743 l 208 449 l 354 593 l 208 743 z m 540 679 l 208 347 l 208 294 l 256 249 l 403 396 l 535 267 l 265 0 l 29 238 l 29 693 l 279 943 l 540 679 z m 86 1096 l 226 1096 l 329 968 l 250 968 l 86 1096 z "},"é":{"ha":554,"x_min":29,"x_max":540,"o":"m 29 0 l 29 0 z m 208 743 l 208 449 l 354 593 l 208 743 z m 540 679 l 208 347 l 208 294 l 256 249 l 403 396 l 535 267 l 265 0 l 29 238 l 29 693 l 279 943 l 540 679 z m 328 1096 l 467 1096 l 303 968 l 224 968 l 328 1096 z "},"ê":{"ha":554,"x_min":29,"x_max":540,"o":"m 29 0 l 29 0 z m 208 743 l 208 449 l 354 593 l 208 743 z m 540 679 l 208 347 l 208 294 l 256 249 l 403 396 l 535 267 l 265 0 l 29 238 l 29 693 l 279 943 l 540 679 z m 78 968 l 206 1096 l 353 1096 l 479 968 l 340 968 l 281 1074 l 221 968 l 78 968 z "},"ë":{"ha":554,"x_min":29,"x_max":540,"o":"m 29 0 l 29 0 z m 208 743 l 208 449 l 354 593 l 208 743 z m 540 679 l 208 347 l 208 294 l 256 249 l 403 396 l 535 267 l 265 0 l 29 238 l 29 693 l 279 943 l 540 679 z m 465 1029 l 386 950 l 308 1029 l 388 1108 l 465 1029 z m 247 1029 l 169 950 l 92 1029 l 171 1108 l 247 1029 z "},"ì":{"ha":365,"x_min":-3,"x_max":344,"o":"m 0 0 l 0 0 z m 344 164 l 181 0 l 18 164 l 92 238 l 92 547 l 22 617 l 201 797 l 274 726 l 274 238 l 344 164 z m -3 1096 l 138 1096 l 240 968 l 161 968 l -3 1096 z "},"í":{"ha":365,"x_min":18,"x_max":385,"o":"m 18 0 l 18 0 z m 344 164 l 181 0 l 18 164 l 92 238 l 92 547 l 22 617 l 201 797 l 274 726 l 274 238 l 344 164 z m 246 1096 l 385 1096 l 221 968 l 142 968 l 246 1096 z "},"î":{"ha":365,"x_min":0,"x_max":401,"o":"m 0 0 l 0 0 z m 344 164 l 181 0 l 18 164 l 92 238 l 92 547 l 22 617 l 201 797 l 274 726 l 274 238 l 344 164 z m 0 968 l 128 1096 l 275 1096 l 401 968 l 263 968 l 203 1074 l 143 968 l 0 968 z "},"ï":{"ha":365,"x_min":18,"x_max":392,"o":"m 18 0 l 18 0 z m 344 164 l 181 0 l 18 164 l 92 238 l 92 547 l 22 617 l 201 797 l 274 726 l 274 238 l 344 164 z m 392 1029 l 313 950 l 235 1029 l 314 1108 l 392 1029 z m 174 1029 l 96 950 l 18 1029 l 97 1108 l 174 1029 z "},"ð":{"ha":563,"x_min":24,"x_max":535,"o":"m 286 0 l 24 258 l 24 488 l 354 819 l 354 867 l 307 913 l 160 763 l 29 892 l 296 1160 l 535 924 l 535 244 l 286 0 z m 183 410 l 183 372 l 364 194 l 364 588 l 183 410 z "},"ñ":{"ha":703,"x_min":18,"x_max":682,"o":"m 18 0 l 18 0 z m 682 164 l 518 0 l 357 164 l 429 238 l 429 588 l 274 744 l 274 238 l 344 164 l 181 0 l 18 164 l 92 238 l 92 675 l 363 943 l 611 694 l 611 238 l 682 164 z m 228 968 l 154 1032 l 258 1096 l 399 1032 l 483 1096 l 561 1031 l 456 968 l 315 1035 l 228 968 z "},"ò":{"ha":563,"x_min":29,"x_max":535,"o":"m 29 0 l 29 0 z m 354 347 l 354 596 l 208 743 l 208 293 l 254 247 l 354 347 z m 535 267 l 265 0 l 29 238 l 29 692 l 279 943 l 535 686 l 535 267 z m 76 1096 l 217 1096 l 319 968 l 240 968 l 76 1096 z "},"ó":{"ha":563,"x_min":29,"x_max":535,"o":"m 29 0 l 29 0 z m 354 347 l 354 596 l 208 743 l 208 293 l 254 247 l 354 347 z m 535 267 l 265 0 l 29 238 l 29 692 l 279 943 l 535 686 l 535 267 z m 311 1096 l 450 1096 l 286 968 l 207 968 l 311 1096 z "},"ô":{"ha":563,"x_min":29,"x_max":535,"o":"m 29 0 l 29 0 z m 354 347 l 354 596 l 208 743 l 208 293 l 254 247 l 354 347 z m 535 267 l 265 0 l 29 238 l 29 692 l 279 943 l 535 686 l 535 267 z m 75 968 l 203 1096 l 350 1096 l 476 968 l 338 968 l 278 1074 l 218 968 l 75 968 z "},"õ":{"ha":563,"x_min":29,"x_max":535,"o":"m 29 0 l 29 0 z m 354 347 l 354 596 l 208 743 l 208 293 l 254 247 l 354 347 z m 535 267 l 265 0 l 29 238 l 29 692 l 279 943 l 535 686 l 535 267 z m 149 968 l 75 1032 l 179 1096 l 319 1032 l 404 1096 l 482 1031 l 376 968 l 236 1035 l 149 968 z "},"ö":{"ha":563,"x_min":29,"x_max":535,"o":"m 29 0 l 29 0 z m 354 347 l 354 596 l 208 743 l 208 293 l 254 247 l 354 347 z m 535 267 l 265 0 l 29 238 l 29 692 l 279 943 l 535 686 l 535 267 z m 464 1029 l 385 950 l 307 1029 l 386 1108 l 464 1029 z m 246 1029 l 168 950 l 90 1029 l 169 1108 l 246 1029 z "},"ø":{"ha":563,"x_min":29,"x_max":535,"o":"m 481 951 l 426 794 l 535 686 l 535 267 l 265 0 l 179 86 l 150 0 l 60 0 l 113 153 l 29 238 l 29 692 l 279 943 l 360 863 l 390 951 l 481 951 z m 354 347 l 354 588 l 240 261 l 254 247 l 354 347 z m 208 743 l 208 428 l 289 661 l 208 743 z "},"ù":{"ha":714,"x_min":18,"x_max":739,"o":"m 18 0 l 18 0 z m 274 706 l 274 293 l 319 246 l 429 357 l 429 706 l 357 779 l 519 943 l 682 779 l 611 706 l 611 267 l 739 128 l 611 1 l 471 139 l 331 0 l 92 239 l 92 706 l 18 779 l 182 943 l 344 779 l 274 706 z m 154 1096 l 294 1096 l 397 968 l 318 968 l 154 1096 z "},"ú":{"ha":714,"x_min":18,"x_max":739,"o":"m 18 0 l 18 0 z m 274 706 l 274 293 l 319 246 l 429 357 l 429 706 l 357 779 l 519 943 l 682 779 l 611 706 l 611 267 l 739 128 l 611 1 l 471 139 l 331 0 l 92 239 l 92 706 l 18 779 l 182 943 l 344 779 l 274 706 z m 371 1096 l 510 1096 l 346 968 l 267 968 l 371 1096 z "},"û":{"ha":714,"x_min":18,"x_max":739,"o":"m 18 0 l 18 0 z m 274 706 l 274 293 l 319 246 l 429 357 l 429 706 l 357 779 l 519 943 l 682 779 l 611 706 l 611 267 l 739 128 l 611 1 l 471 139 l 331 0 l 92 239 l 92 706 l 18 779 l 182 943 l 344 779 l 274 706 z m 147 968 l 275 1096 l 422 1096 l 549 968 l 410 968 l 350 1074 l 290 968 l 147 968 z "},"ü":{"ha":714,"x_min":18,"x_max":739,"o":"m 18 0 l 18 0 z m 274 706 l 274 293 l 319 246 l 429 357 l 429 706 l 357 779 l 519 943 l 682 779 l 611 706 l 611 267 l 739 128 l 611 1 l 471 139 l 331 0 l 92 239 l 92 706 l 18 779 l 182 943 l 344 779 l 274 706 z m 538 1029 l 458 950 l 381 1029 l 460 1108 l 538 1029 z m 319 1029 l 242 950 l 164 1029 l 243 1108 l 319 1029 z "},"ý":{"ha":703,"x_min":18,"x_max":682,"o":"m 18 0 l 18 0 z m 682 779 l 611 706 l 611 28 l 365 -221 l 246 -101 l 429 82 l 429 208 l 261 40 l 92 208 l 92 706 l 18 779 l 182 943 l 344 779 l 274 706 l 274 279 l 429 436 l 429 706 l 357 779 l 519 943 l 682 779 z m 374 1096 l 513 1096 l 349 968 l 269 968 l 374 1096 z "},"þ":{"ha":563,"x_min":29,"x_max":535,"o":"m 354 596 l 208 743 l 208 293 l 254 247 l 354 347 l 354 596 z m 265 0 l 207 56 l 207 -221 l 29 -40 l 29 983 l 208 1164 l 208 872 l 279 943 l 535 686 l 535 267 l 265 0 z "},"ÿ":{"ha":703,"x_min":18,"x_max":682,"o":"m 18 0 l 18 0 z m 682 779 l 611 706 l 611 28 l 365 -221 l 246 -101 l 429 82 l 429 208 l 261 40 l 92 208 l 92 706 l 18 779 l 182 943 l 344 779 l 274 706 l 274 279 l 429 436 l 429 706 l 357 779 l 519 943 l 682 779 z m 542 1029 l 463 950 l 385 1029 l 464 1108 l 542 1029 z m 324 1029 l 246 950 l 168 1029 l 247 1108 l 324 1029 z "},"ı":{"ha":365,"x_min":18,"x_max":344,"o":"m 344 164 l 181 0 l 18 164 l 92 238 l 92 547 l 22 617 l 201 797 l 274 726 l 274 238 l 344 164 z "},"Ł":{"ha":535,"x_min":0,"x_max":535,"o":"m 379 1014 l 379 839 l 208 704 l 208 294 l 256 249 l 403 396 l 535 267 l 265 0 l 29 238 l 29 564 l 0 542 l 0 717 l 29 739 l 29 986 l 208 1165 l 208 879 l 379 1014 z "},"ł":{"ha":365,"x_min":0,"x_max":365,"o":"m 365 874 l 365 699 l 274 618 l 274 238 l 344 164 l 181 0 l 18 164 l 92 238 l 92 461 l 0 382 l 0 557 l 92 636 l 92 983 l 274 1164 l 274 793 l 365 874 z "},"Œ":{"ha":897,"x_min":29,"x_max":868,"o":"m 868 904 l 731 767 l 536 965 l 536 671 l 807 671 l 633 496 l 536 496 l 536 294 l 583 249 l 731 396 l 863 267 l 593 0 l 431 163 l 265 0 l 29 238 l 29 915 l 279 1165 l 443 1001 l 607 1165 l 868 904 z m 354 347 l 354 819 l 208 965 l 208 294 l 256 249 l 354 347 z "},"œ":{"ha":879,"x_min":29,"x_max":869,"o":"m 869 679 l 538 347 l 538 294 l 585 249 l 732 396 l 864 267 l 594 0 l 431 164 l 265 0 l 29 238 l 29 692 l 279 943 l 443 778 l 608 943 l 869 679 z m 354 347 l 354 596 l 208 743 l 208 293 l 254 247 l 354 347 z m 538 743 l 538 449 l 683 593 l 538 743 z "},"Š":{"ha":568,"x_min":29,"x_max":540,"o":"m 29 0 l 29 0 z m 540 238 l 301 0 l 33 267 l 164 399 l 311 249 l 407 343 l 29 724 l 29 901 l 289 1165 l 540 915 l 421 796 l 190 1029 l 190 801 l 540 453 l 540 238 z m 486 1314 l 358 1186 l 211 1186 l 85 1314 l 225 1314 l 285 1210 l 346 1314 l 486 1314 z "},"š":{"ha":576,"x_min":18,"x_max":553,"o":"m 18 0 l 18 0 z m 526 238 l 288 0 l 18 267 l 150 399 l 299 249 l 372 321 l 372 442 l 42 442 l 42 681 l 303 946 l 553 696 l 435 576 l 204 808 l 204 550 l 526 550 l 526 238 z m 503 1096 l 375 968 l 228 968 l 101 1096 l 242 1096 l 301 992 l 363 1096 l 503 1096 z "},"Ÿ":{"ha":703,"x_min":17,"x_max":681,"o":"m 17 0 l 17 0 z m 528 1247 l 449 1168 l 371 1247 l 450 1326 l 528 1247 z m 310 1247 l 232 1168 l 154 1247 l 233 1326 l 310 1247 z m 508 164 l 344 0 l 182 164 l 256 238 l 256 478 l 90 643 l 90 928 l 17 1001 l 181 1165 l 343 1001 l 272 928 l 272 750 l 428 593 l 428 928 l 354 1001 l 518 1165 l 681 1001 l 610 928 l 610 663 l 435 492 l 435 238 l 508 164 z "},"Ž":{"ha":703,"x_min":22,"x_max":679,"o":"m 22 0 l 22 0 z m 679 164 l 517 -1 l 460 56 l 71 56 l 367 901 l 250 901 l 185 835 l 22 1000 l 185 1164 l 246 1103 l 633 1103 l 321 275 l 464 275 l 517 328 l 679 164 z m 542 1314 l 414 1186 l 267 1186 l 140 1314 l 281 1314 l 340 1210 l 401 1314 l 542 1314 z "},"ž":{"ha":700,"x_min":19,"x_max":679,"o":"m 19 0 l 19 0 z m 679 164 l 515 -1 l 458 56 l 69 56 l 346 682 l 250 682 l 183 618 l 19 783 l 183 947 l 244 886 l 633 886 l 350 275 l 463 275 l 515 328 l 679 164 z m 558 1096 l 431 968 l 283 968 l 157 1096 l 297 1096 l 357 992 l 418 1096 l 558 1096 z "},"ƒ":{"ha":847,"x_min":6,"x_max":843,"o":"m 822 832 l 644 657 l 521 657 l 333 -40 l 107 -221 l 6 -86 l 178 50 l 411 915 l 726 1165 l 843 1006 l 671 872 l 604 965 l 568 832 l 822 832 z "},"ˆ":{"ha":639,"x_min":58,"x_max":460,"o":"m 58 1186 l 186 1314 l 333 1314 l 460 1186 l 321 1186 l 261 1292 l 201 1186 l 58 1186 z "},"ˇ":{"ha":639,"x_min":58,"x_max":460,"o":"m 460 1314 l 332 1186 l 185 1186 l 58 1314 l 199 1314 l 258 1210 l 319 1314 l 460 1314 z "},"˚":{"ha":639,"x_min":211,"x_max":419,"o":"m 249 1278 l 249 1278 q 267 1229 249 1249 q 317 1210 286 1210 l 317 1210 q 365 1229 344 1210 q 385 1278 385 1249 l 385 1278 q 365 1326 385 1307 q 317 1346 344 1346 l 317 1346 q 267 1326 286 1346 q 249 1278 249 1307 z m 211 1278 l 211 1278 q 242 1351 211 1321 q 315 1382 272 1382 l 315 1382 q 389 1351 358 1382 q 419 1278 419 1321 l 419 1278 q 389 1204 419 1235 q 315 1174 358 1174 l 315 1174 q 242 1204 272 1174 q 211 1278 211 1235 z "},"˜":{"ha":639,"x_min":39,"x_max":446,"o":"m 113 1186 l 39 1250 l 143 1314 l 283 1250 l 368 1314 l 446 1249 l 340 1186 l 200 1253 l 113 1186 z "},"μ":{"ha":714,"x_min":18,"x_max":739,"o":"m 274 706 l 274 293 l 319 246 l 429 357 l 429 706 l 357 779 l 519 943 l 682 779 l 611 706 l 611 267 l 739 128 l 611 1 l 471 139 l 331 0 l 226 101 l 226 -164 l 92 -164 l 92 706 l 18 779 l 182 943 l 344 779 l 274 706 z "},"–":{"ha":785,"x_min":43,"x_max":740,"o":"m 740 671 l 740 496 l 43 496 l 43 671 l 740 671 z "},"—":{"ha":1144,"x_min":43,"x_max":1101,"o":"m 1101 671 l 1101 496 l 43 496 l 43 671 l 1101 671 z "},"‘":{"ha":393,"x_min":33,"x_max":360,"o":"m 33 1085 l 308 1363 l 360 1318 l 243 1201 l 360 1085 l 193 921 l 33 1085 z "},"’":{"ha":392,"x_min":33,"x_max":360,"o":"m 360 1133 l 83 857 l 33 901 l 150 1017 l 33 1133 l 200 1297 l 360 1133 z "},"‚":{"ha":471,"x_min":33,"x_max":360,"o":"m 33 0 l 33 0 z m 360 164 l 83 -112 l 33 -68 l 150 47 l 33 164 l 200 329 l 360 164 z "},"“":{"ha":739,"x_min":22,"x_max":706,"o":"m 379 1071 l 657 1347 l 706 1303 l 589 1186 l 706 1071 l 540 907 l 379 1071 z m 22 1071 l 297 1347 l 347 1303 l 232 1186 l 347 1071 l 181 907 l 22 1071 z "},"”":{"ha":750,"x_min":32,"x_max":728,"o":"m 728 1133 l 453 857 l 403 901 l 518 1017 l 403 1133 l 569 1297 l 728 1133 z m 358 1133 l 82 857 l 32 901 l 149 1017 l 32 1133 l 199 1297 l 358 1133 z "},"„":{"ha":717,"x_min":32,"x_max":697,"o":"m 358 164 l 82 -112 l 32 -68 l 149 47 l 32 164 l 199 329 l 358 164 z m 697 164 l 421 -112 l 371 -68 l 488 47 l 371 164 l 538 329 l 697 164 z "},"•":{"ha":494,"x_min":19,"x_max":493,"o":"m 493 622 l 19 -36 l 185 440 l 19 440 l 236 933 l 438 933 l 324 622 l 493 622 z "},"…":{"ha":2633,"x_min":406,"x_max":2226,"o":"m 406 0 l 406 0 z m 732 164 l 568 0 l 406 164 l 572 329 l 732 164 z m 1479 164 l 1315 0 l 1153 164 l 1319 329 l 1479 164 z m 2226 164 l 2063 0 l 1900 164 l 2067 329 l 2226 164 z "},"‰":{"ha":1139,"x_min":36,"x_max":1119,"o":"m 1019 192 l 1019 328 l 942 408 l 942 161 l 965 135 l 1019 192 z m 1119 147 l 971 0 l 842 131 l 842 379 l 979 517 l 1119 378 l 1119 147 z m 650 192 l 650 328 l 571 408 l 571 161 l 594 135 l 650 192 z m 749 147 l 600 0 l 471 131 l 471 379 l 610 517 l 749 378 l 749 147 z m 215 835 l 215 971 l 135 1051 l 135 806 l 160 781 l 215 835 z m 313 792 l 167 644 l 36 775 l 36 1025 l 174 1163 l 313 1021 l 313 792 z m 726 1165 l 193 0 l 83 0 l 615 1165 l 726 1165 z "},"‹":{"ha":394,"x_min":6,"x_max":288,"o":"m 6 243 l 6 243 z m 6 406 l 6 540 l 288 701 l 288 583 l 97 472 l 288 364 l 288 243 l 6 406 z "},"›":{"ha":394,"x_min":43,"x_max":325,"o":"m 43 243 l 43 243 z m 325 539 l 325 404 l 43 243 l 43 361 l 235 471 l 43 581 l 43 701 l 325 539 z "},"€":{"ha":540,"x_min":-26,"x_max":540,"o":"m 475 678 l 475 604 l 208 604 l 208 549 l 475 549 l 475 475 l 208 475 l 208 294 l 254 250 l 403 396 l 535 267 l 265 0 l 29 238 l 29 475 l -26 475 l -26 549 l 29 549 l 29 604 l -26 604 l -26 678 l 29 678 l 29 915 l 279 1165 l 540 901 l 404 764 l 208 960 l 208 678 l 475 678 z "},"™":{"ha":824,"x_min":6,"x_max":775,"o":"m 413 1032 l 413 704 l 447 669 l 475 703 l 475 969 l 413 1032 z m 576 1032 l 576 703 l 607 668 l 638 703 l 638 969 l 576 1032 z m 364 1151 l 263 1051 l 222 1051 l 222 703 l 260 663 l 172 576 l 86 663 l 122 703 l 122 1051 l 6 1051 l 103 1151 l 364 1151 z m 775 663 l 688 576 l 607 657 l 526 576 l 446 657 l 364 576 l 276 663 l 313 703 l 313 1019 l 450 1156 l 532 1075 l 613 1156 l 739 1029 l 739 703 l 775 663 z "}}}
